<svg xmlns="http://www.w3.org/2000/svg" viewBox="0 0 900 620" role="img" aria-labelledby="t d">
  <title id="t">La Caja Infinita</title>
  <desc id="d">Ilustración original estilo caja de juegos retro con tableros, dados, cartas y fichas.</desc>
  <defs>
    <linearGradient id="wood" x1="0" x2="1" y1="0" y2="1"><stop stop-color="#8b4a24"/><stop offset=".45" stop-color="#4a2112"/><stop offset="1" stop-color="#190806"/></linearGradient>
    <linearGradient id="gold" x1="0" x2="1"><stop stop-color="#ffe7a4"/><stop offset="1" stop-color="#b97925"/></linearGradient>
    <filter id="shadow" x="-20%" y="-20%" width="140%" height="140%"><feDropShadow dx="0" dy="18" stdDeviation="16" flood-opacity=".45"/></filter>
    <pattern id="grid" width="42" height="42" patternUnits="userSpaceOnUse"><path d="M42 0H0v42" fill="none" stroke="#ffffff" stroke-opacity=".08" stroke-width="2"/></pattern>
  </defs>
  <rect width="900" height="620" rx="52" fill="#160705"/>
  <rect x="46" y="48" width="808" height="524" rx="46" fill="url(#wood)" filter="url(#shadow)"/>
  <rect x="80" y="82" width="740" height="456" rx="34" fill="url(#grid)" stroke="url(#gold)" stroke-width="6"/>
  <path d="M118 470 C250 388 398 420 510 350 C628 276 704 330 786 220" fill="none" stroke="#ffe7a4" stroke-opacity=".18" stroke-width="26" stroke-linecap="round"/>
  <g transform="translate(120 140)">
    <rect width="178" height="178" rx="18" fill="#f8e0a0" transform="rotate(-8 89 89)"/>
    <rect x="22" y="20" width="134" height="134" rx="10" fill="#872031" transform="rotate(-8 89 89)"/>
    <text x="88" y="112" text-anchor="middle" font-family="Georgia,serif" font-size="70" fill="#ffe7a4">A♠</text>
  </g>
  <g transform="translate(565 120)">
    <rect width="128" height="128" rx="24" fill="#f3dfb5"/>
    <circle cx="36" cy="36" r="12" fill="#2b1608"/><circle cx="92" cy="36" r="12" fill="#2b1608"/><circle cx="64" cy="64" r="12" fill="#2b1608"/><circle cx="36" cy="92" r="12" fill="#2b1608"/><circle cx="92" cy="92" r="12" fill="#2b1608"/>
  </g>
  <g transform="translate(360 260)">
    <rect width="190" height="190" rx="18" fill="#21100a" stroke="#ffe7a4" stroke-width="5"/>
    <g fill="#ffe7a4" opacity=".9">
      <rect x="0" y="0" width="47.5" height="47.5"/><rect x="95" y="0" width="47.5" height="47.5"/>
      <rect x="47.5" y="47.5" width="47.5" height="47.5"/><rect x="142.5" y="47.5" width="47.5" height="47.5"/>
      <rect x="0" y="95" width="47.5" height="47.5"/><rect x="95" y="95" width="47.5" height="47.5"/>
      <rect x="47.5" y="142.5" width="47.5" height="47.5"/><rect x="142.5" y="142.5" width="47.5" height="47.5"/>
    </g>
  </g>
  <circle cx="242" cy="410" r="42" fill="#c93030" stroke="#ffe7a4" stroke-width="5"/>
  <circle cx="298" cy="438" r="42" fill="#2459d6" stroke="#ffe7a4" stroke-width="5"/>
  <circle cx="650" cy="406" r="42" fill="#24965b" stroke="#ffe7a4" stroke-width="5"/>
  <circle cx="708" cy="440" r="42" fill="#d7a72b" stroke="#ffe7a4" stroke-width="5"/>
  <text x="450" y="112" text-anchor="middle" font-family="Georgia,serif" font-size="52" font-weight="700" fill="#ffe7a4">LA CAJA INFINITA</text>
  <text x="450" y="520" text-anchor="middle" font-family="Verdana,sans-serif" font-size="22" letter-spacing="6" fill="#ffe7a4" opacity=".88">JUEGOS REUNIDOS · V5</text>
</svg>
