<svg xmlns="http://www.w3.org/2000/svg" viewBox="0 0 256 180" role="img" aria-label="Moneda">
  <defs>
    <linearGradient id="bg" x1="0" y1="0" x2="1" y2="1"><stop offset="0" stop-color="#8a5b12"/><stop offset="1" stop-color="#120907"/></linearGradient>
    <radialGradient id="glow" cx="28%" cy="18%" r="75%"><stop offset="0" stop-color="#ffc642" stop-opacity=".42"/><stop offset="1" stop-color="#120907" stop-opacity="0"/></radialGradient>
    <filter id="shadow" x="-20%" y="-20%" width="140%" height="140%"><feDropShadow dx="0" dy="8" stdDeviation="7" flood-color="#000" flood-opacity=".35"/></filter>
  </defs>
  <rect width="256" height="180" rx="22" fill="url(#bg)"/>
  <rect width="256" height="180" rx="22" fill="url(#glow)"/>
  <g opacity=".95" filter="url(#shadow)">
    <rect x="58" y="54" width="42" height="42" rx="10" fill="rgba(255,241,201,.82)"/><circle cx="71" cy="67" r="4" fill="#5b270d"/><circle cx="87" cy="83" r="4" fill="#5b270d"/>
<rect x="106" y="84" width="42" height="42" rx="10" fill="rgba(255,241,201,.82)"/><circle cx="119" cy="97" r="4" fill="#5b270d"/><circle cx="135" cy="113" r="4" fill="#5b270d"/>
<rect x="154" y="54" width="42" height="42" rx="10" fill="rgba(255,241,201,.82)"/><circle cx="167" cy="67" r="4" fill="#5b270d"/><circle cx="183" cy="83" r="4" fill="#5b270d"/>
<circle cx="128" cy="150" r="30" fill="rgba(255,198,66,.28)" stroke="rgba(255,238,179,.45)" stroke-width="5"/>
  </g>
  <circle cx="218" cy="36" r="24" fill="rgba(255,231,165,.18)" stroke="rgba(255,231,165,.35)" stroke-width="2"/>
  <text x="218" y="45" text-anchor="middle" font-size="28" font-family="Georgia, serif">🪙</text>
  <rect x="14" y="130" width="228" height="36" rx="14" fill="rgba(9,4,3,.58)"/>
  <text x="128" y="153" text-anchor="middle" fill="#ffe9b8" font-size="16" font-weight="700" font-family="Georgia, serif">Moneda</text>
</svg>