<svg xmlns="http://www.w3.org/2000/svg" viewBox="0 0 256 180" role="img" aria-label="Ahorcado">
  <defs>
    <linearGradient id="bg" x1="0" y1="0" x2="1" y2="1"><stop offset="0" stop-color="#40336d"/><stop offset="1" stop-color="#120907"/></linearGradient>
    <radialGradient id="glow" cx="28%" cy="18%" r="75%"><stop offset="0" stop-color="#ddd9ff" stop-opacity=".42"/><stop offset="1" stop-color="#120907" stop-opacity="0"/></radialGradient>
    <filter id="shadow" x="-20%" y="-20%" width="140%" height="140%"><feDropShadow dx="0" dy="8" stdDeviation="7" flood-color="#000" flood-opacity=".35"/></filter>
  </defs>
  <rect width="256" height="180" rx="22" fill="url(#bg)"/>
  <rect width="256" height="180" rx="22" fill="url(#glow)"/>
  <g opacity=".95" filter="url(#shadow)">
    <rect x="32" y="58" width="29" height="29" rx="6" fill="rgba(221,217,255,.22)"/>
<rect x="70" y="58" width="29" height="29" rx="6" fill="rgba(221,217,255,.22)"/>
<rect x="108" y="58" width="29" height="29" rx="6" fill="rgba(221,217,255,.22)"/>
<rect x="146" y="58" width="29" height="29" rx="6" fill="rgba(221,217,255,.22)"/>
<rect x="184" y="58" width="29" height="29" rx="6" fill="rgba(221,217,255,.22)"/>
<path d="M42 120 H214 M42 142 H188 M42 164 H204" stroke="rgba(255,255,255,.26)" stroke-width="8" stroke-linecap="round"/>
  </g>
  <circle cx="218" cy="36" r="24" fill="rgba(255,231,165,.18)" stroke="rgba(255,231,165,.35)" stroke-width="2"/>
  <text x="218" y="45" text-anchor="middle" font-size="28" font-family="Georgia, serif">📜</text>
  <rect x="14" y="130" width="228" height="36" rx="14" fill="rgba(9,4,3,.58)"/>
  <text x="128" y="153" text-anchor="middle" fill="#ffe9b8" font-size="16" font-weight="700" font-family="Georgia, serif">Ahorcado</text>
</svg>